<svg xmlns="http://www.w3.org/2000/svg" viewBox="0 0 640 240" role="img" aria-labelledby="title desc">
  <title id="title">DATA ERP</title>
  <desc id="desc">Marca DATA ERP con una D tecnológica y circuitos violetas y dorados sobre fondo azul noche.</desc>
  <defs>
    <linearGradient id="violet" x1="0" y1="0" x2="1" y2="1"><stop stop-color="#e44acb"/><stop offset="1" stop-color="#712cf9"/></linearGradient>
    <linearGradient id="gold" x1="0" y1="0" x2="1" y2="1"><stop stop-color="#ffe879"/><stop offset="1" stop-color="#ffad4a"/></linearGradient>
    <linearGradient id="word" x1="0" y1="0" x2="1" y2="0"><stop stop-color="#fff"/><stop offset="1" stop-color="#dce5ff"/></linearGradient>
  </defs>
  <rect width="640" height="240" rx="28" fill="#090b24"/>
  <g transform="translate(28 28)">
    <path d="M126 24h74v122h91a61 61 0 0 0 0-122h-91" fill="none" stroke="url(#violet)" stroke-width="18" stroke-linejoin="round"/>
    <path d="M200 24h91a61 61 0 0 1 0 122h-91z" fill="none" stroke="url(#gold)" stroke-width="15" stroke-linejoin="round"/>
    <path d="M18 47h70l15 13h97M4 85h76l15-13h105M20 123h56l14 13h99" fill="none" stroke="#f7f5ff" stroke-width="7" stroke-linecap="round" stroke-linejoin="round"/>
    <path d="M18 28h108M18 104h108" fill="none" stroke="url(#violet)" stroke-width="7" stroke-linecap="round"/>
    <g fill="url(#violet)"><circle cx="17" cy="28" r="8"/><circle cx="17" cy="104" r="8"/></g>
    <g fill="#f7f5ff"><circle cx="18" cy="47" r="7"/><circle cx="4" cy="85" r="7"/><circle cx="20" cy="123" r="7"/></g>
  </g>
  <text x="365" y="104" fill="url(#word)" font-family="Arial, Helvetica, sans-serif" font-size="43" font-weight="800" letter-spacing="1">DATA</text>
  <text x="365" y="151" fill="url(#violet)" font-family="Arial, Helvetica, sans-serif" font-size="43" font-weight="800" letter-spacing="1">ERP</text>
</svg>
